<svg width="32" height="25" viewBox="0 0 32 25" fill="none" xmlns="http://www.w3.org/2000/svg">
<path fill-rule="evenodd" clip-rule="evenodd" d="M16.6 0.814738C16.7996 0.601607 17.0392 0.429888 17.3051 0.309395C17.5711 0.188902 17.8582 0.121996 18.15 0.112503C18.4418 0.10301 18.7326 0.151114 19.0058 0.254068C19.279 0.357021 19.5293 0.512805 19.7423 0.712516L30.409 10.7125C30.631 10.9204 30.808 11.1716 30.929 11.4506C31.05 11.7297 31.1124 12.0306 31.1124 12.3347C31.1124 12.6389 31.05 12.9398 30.929 13.2188C30.808 13.4979 30.631 13.7491 30.409 13.957L19.7423 23.957C19.5292 24.1566 19.279 24.3123 19.0058 24.4152C18.7326 24.518 18.4418 24.5661 18.15 24.5566C17.8582 24.5471 17.5711 24.4803 17.3052 24.3598C17.0393 24.2394 16.7996 24.0678 16.6 23.8547C16.4004 23.6417 16.2447 23.3914 16.1418 23.1182C16.0389 22.845 15.9909 22.5542 16.0004 22.2625C16.0099 21.9707 16.0767 21.6836 16.1972 21.4177C16.3176 21.1517 16.4892 20.9121 16.7023 20.7125L23.2689 14.557H2.22223C1.63286 14.557 1.06762 14.3228 0.650875 13.9061C0.234127 13.4893 0 12.9241 0 12.3347C0 11.7454 0.234127 11.1801 0.650875 10.7634C1.06762 10.3466 1.63286 10.1125 2.22223 10.1125H23.2689L16.7023 3.95696C16.4891 3.75741 16.3174 3.51782 16.1969 3.25187C16.0764 2.98593 16.0095 2.69884 16 2.40703C15.9905 2.11522 16.0386 1.82439 16.1416 1.55118C16.2445 1.27797 16.4003 1.02772 16.6 0.814738Z" fill="#C92D78"/>
</svg>
