<svg width="27" height="27" viewBox="0 0 27 27" fill="none" xmlns="http://www.w3.org/2000/svg">
<path d="M17.029 13.5002L26.3063 4.22282C26.7466 3.78329 26.9943 3.18686 26.9948 2.56473C26.9954 1.9426 26.7488 1.34573 26.3092 0.905433C25.8697 0.465132 25.2733 0.217465 24.6512 0.216916C24.029 0.216366 23.4322 0.462979 22.9919 0.902503L13.7145 10.1798L4.43717 0.902503C3.99687 0.462202 3.39969 0.214844 2.77701 0.214844C2.15434 0.214844 1.55716 0.462202 1.11686 0.902503C0.676558 1.3428 0.429199 1.93998 0.429199 2.56266C0.429199 3.18534 0.676558 3.78252 1.11686 4.22282L10.3942 13.5002L1.11686 22.7775C0.676558 23.2178 0.429199 23.815 0.429199 24.4377C0.429199 25.0603 0.676558 25.6575 1.11686 26.0978C1.55716 26.5381 2.15434 26.7855 2.77701 26.7855C3.39969 26.7855 3.99687 26.5381 4.43717 26.0978L13.7145 16.8205L22.9919 26.0978C23.4322 26.5381 24.0293 26.7855 24.652 26.7855C25.2747 26.7855 25.8719 26.5381 26.3122 26.0978C26.7525 25.6575 26.9998 25.0603 26.9998 24.4377C26.9998 23.815 26.7525 23.2178 26.3122 22.7775L17.029 13.5002Z" fill="white"/>
</svg>
