<svg width="25" height="45" viewBox="0 0 25 45" fill="none" xmlns="http://www.w3.org/2000/svg">
<path fill-rule="evenodd" clip-rule="evenodd" d="M25.0002 33.3333C25.0002 36.2802 23.8295 39.1063 21.7458 41.1901C19.662 43.2738 16.8359 44.4444 13.889 44.4444H2.77789C2.18852 44.4444 1.62329 44.2103 1.20654 43.7936C0.789791 43.3768 0.555664 42.8116 0.555664 42.2222C0.555664 41.6329 0.789791 41.0676 1.20654 40.6509C1.62329 40.2341 2.18852 40 2.77789 40H13.889C15.6571 40 17.3528 39.2976 18.6031 38.0474C19.8533 36.7971 20.5557 35.1014 20.5557 33.3333V11.1111C20.5557 9.343 19.8533 7.64731 18.6031 6.39707C17.3528 5.14682 15.6571 4.44444 13.889 4.44444H2.77789C2.18852 4.44444 1.62329 4.21032 1.20654 3.79357C0.789791 3.37682 0.555664 2.81159 0.555664 2.22222C0.555664 1.63285 0.789791 1.06762 1.20654 0.650874C1.62329 0.234126 2.18852 0 2.77789 0H13.889C16.8359 0 19.662 1.17063 21.7458 3.25437C23.8295 5.33811 25.0002 8.16426 25.0002 11.1111V33.3333Z" fill="#C92D78"/>
</svg>
