<svg width="34" height="34" viewBox="0 0 34 34" fill="none" xmlns="http://www.w3.org/2000/svg">
<g clip-path="url(#clip0_2105_14)">
<path d="M32.2861 13.8591L18.6001 13.8584C17.9957 13.8584 17.5059 14.3482 17.5059 14.9525V19.3246C17.5059 19.9288 17.9957 20.4187 18.6 20.4187H26.3071C25.4632 22.6089 23.888 24.4431 21.8784 25.6086L25.1647 31.2975C30.4363 28.2487 33.5529 22.8992 33.5529 16.9109C33.5529 16.0583 33.4901 15.4488 33.3644 14.7624C33.2689 14.241 32.8162 13.8591 32.2861 13.8591Z" fill="#167EE6"/>
<path d="M16.7764 26.9882C13.0046 26.9882 9.71199 24.9274 7.94357 21.8779L2.25488 25.1568C5.14982 30.1742 10.573 33.5529 16.7764 33.5529C19.8195 33.5529 22.691 32.7335 25.1646 31.3056V31.2978L21.8783 25.6089C20.3751 26.4807 18.6356 26.9882 16.7764 26.9882Z" fill="#12B347"/>
<path d="M25.1646 31.3051V31.2973L21.8783 25.6084C20.3751 26.4802 18.6357 26.9877 16.7764 26.9877V33.5524C19.8195 33.5524 22.6911 32.7331 25.1646 31.3051Z" fill="#0F993E"/>
<path d="M6.56474 16.776C6.56474 14.9169 7.0721 13.1775 7.94376 11.6744L2.25507 8.39551C0.819298 10.8613 0 13.725 0 16.776C0 19.8269 0.819298 22.6906 2.25507 25.1564L7.94376 21.8776C7.0721 20.3744 6.56474 18.6351 6.56474 16.776Z" fill="#FFD500"/>
<path d="M16.7764 6.56474C19.2359 6.56474 21.4951 7.43869 23.2597 8.89242C23.695 9.25101 24.3278 9.22513 24.7265 8.82636L27.8243 5.7286C28.2767 5.27616 28.2445 4.53556 27.7612 4.11628C24.8046 1.55137 20.9578 0 16.7764 0C10.573 0 5.14982 3.3787 2.25488 8.39607L7.94357 11.675C9.71199 8.6255 13.0046 6.56474 16.7764 6.56474Z" fill="#FF4B26"/>
<path d="M23.2597 8.89242C23.6951 9.25101 24.3278 9.22513 24.7265 8.82636L27.8243 5.7286C28.2767 5.27615 28.2444 4.53556 27.7612 4.11628C24.8047 1.55131 20.9579 0 16.7764 0V6.56474C19.2358 6.56474 21.4951 7.43869 23.2597 8.89242Z" fill="#D93F21"/>
</g>
<defs>
<clipPath id="clip0_2105_14">
<rect width="33.5531" height="33.5531" fill="white"/>
</clipPath>
</defs>
</svg>
