<svg width="38" height="38" viewBox="0 0 38 38" fill="none" xmlns="http://www.w3.org/2000/svg">
<path d="M32.3845 12.1769L31.9643 13.1438C31.8986 13.3013 31.7878 13.4358 31.6459 13.5304C31.5039 13.625 31.3371 13.6754 31.1665 13.6754C30.9959 13.6754 30.8291 13.625 30.6872 13.5304C30.5452 13.4358 30.4344 13.3013 30.3687 13.1438L29.9485 12.1769C29.2096 10.4664 27.8564 9.09492 26.156 8.33314L24.8593 7.75402C24.702 7.68166 24.5688 7.56571 24.4754 7.41992C24.3819 7.27413 24.3323 7.10461 24.3323 6.93146C24.3323 6.75831 24.3819 6.58879 24.4754 6.443C24.5688 6.2972 24.702 6.18125 24.8593 6.10889L26.0842 5.56394C27.8274 4.78046 29.2037 3.35827 29.9297 1.59035L30.3636 0.54656C30.4271 0.384873 30.5378 0.246061 30.6813 0.14822C30.8248 0.0503785 30.9945 -0.00195313 31.1682 -0.00195312C31.3419 -0.00195312 31.5116 0.0503785 31.6551 0.14822C31.7986 0.246061 31.9094 0.384873 31.9728 0.54656L32.405 1.58864C33.1302 3.3569 34.5059 4.7797 36.2488 5.56394L37.4754 6.1106C37.6322 6.18317 37.765 6.2991 37.8581 6.44471C37.9511 6.59031 38.0006 6.75951 38.0006 6.93231C38.0006 7.10511 37.9511 7.27431 37.8581 7.41991C37.765 7.56552 37.6322 7.68145 37.4754 7.75402L36.177 8.33144C34.4769 9.09398 33.1244 10.466 32.3863 12.1769M11.5207 10.2499H8.104V30.7499H11.5207V10.2499ZM3.83317 17.0832H0.416504V23.9166H3.83317V17.0832ZM19.2082 3.41656H15.7915V37.5832H19.2082V3.41656ZM26.8957 13.6666H23.479V30.7499H26.8957V13.6666ZM34.5832 17.0832H31.1665V23.9166H34.5832V17.0832Z" fill="#C92D78"/>
</svg>
