<svg width="40" height="45" viewBox="0 0 40 45" fill="none" xmlns="http://www.w3.org/2000/svg">
<path fill-rule="evenodd" clip-rule="evenodd" d="M40.0002 33.3333C40.0002 36.2802 38.8295 39.1063 36.7458 41.1901C34.662 43.2738 31.8359 44.4444 28.889 44.4444H17.7779C17.1885 44.4444 16.6233 44.2103 16.2065 43.7936C15.7898 43.3768 15.5557 42.8116 15.5557 42.2222C15.5557 41.6329 15.7898 41.0676 16.2065 40.6509C16.6233 40.2341 17.1885 40 17.7779 40H28.889C30.6571 40 32.3528 39.2976 33.6031 38.0474C34.8533 36.7971 35.5557 35.1014 35.5557 33.3333V11.1111C35.5557 9.343 34.8533 7.64731 33.6031 6.39707C32.3528 5.14682 30.6571 4.44444 28.889 4.44444H17.7779C17.1885 4.44444 16.6233 4.21032 16.2065 3.79357C15.7898 3.37682 15.5557 2.81159 15.5557 2.22222C15.5557 1.63285 15.7898 1.06762 16.2065 0.650874C16.6233 0.234126 17.1885 0 17.7779 0H28.889C31.8359 0 34.662 1.17063 36.7458 3.25437C38.8295 5.33811 40.0002 8.16426 40.0002 11.1111V33.3333Z" fill="#C92D78"/>
<path fill-rule="evenodd" clip-rule="evenodd" d="M16.6 11.8147C16.7996 11.6016 17.0392 11.4299 17.3051 11.3094C17.5711 11.1889 17.8582 11.122 18.15 11.1125C18.4418 11.103 18.7326 11.1511 19.0058 11.2541C19.279 11.357 19.5293 11.5128 19.7423 11.7125L30.409 21.7125C30.631 21.9204 30.808 22.1716 30.929 22.4506C31.05 22.7297 31.1124 23.0306 31.1124 23.3347C31.1124 23.6389 31.05 23.9398 30.929 24.2188C30.808 24.4979 30.631 24.7491 30.409 24.957L19.7423 34.957C19.5292 35.1566 19.279 35.3123 19.0058 35.4152C18.7326 35.518 18.4418 35.5661 18.15 35.5566C17.8582 35.5471 17.5711 35.4803 17.3052 35.3598C17.0393 35.2394 16.7996 35.0678 16.6 34.8547C16.4004 34.6417 16.2447 34.3914 16.1418 34.1182C16.0389 33.845 15.9909 33.5542 16.0004 33.2625C16.0099 32.9707 16.0767 32.6836 16.1972 32.4177C16.3176 32.1517 16.4892 31.9121 16.7023 31.7125L23.2689 25.557H2.22223C1.63286 25.557 1.06762 25.3228 0.650875 24.9061C0.234127 24.4893 0 23.9241 0 23.3347C0 22.7454 0.234127 22.1801 0.650875 21.7634C1.06762 21.3466 1.63286 21.1125 2.22223 21.1125H23.2689L16.7023 14.957C16.4891 14.7574 16.3174 14.5178 16.1969 14.2519C16.0764 13.9859 16.0095 13.6988 16 13.407C15.9905 13.1152 16.0386 12.8244 16.1416 12.5512C16.2445 12.278 16.4003 12.0277 16.6 11.8147Z" fill="#C92D78"/>
</svg>
