<svg width="42" height="56" viewBox="0 0 42 56" fill="none" xmlns="http://www.w3.org/2000/svg">
<path d="M6.5 24.5C6.5 23.1211 6.77159 21.7557 7.29926 20.4818C7.82694 19.2079 8.60036 18.0504 9.57538 17.0754C10.5504 16.1004 11.7079 15.3269 12.9818 14.7993C14.2557 14.2716 15.6211 14 17 14C18.3789 14 19.7443 14.2716 21.0182 14.7993C22.2921 15.3269 23.4496 16.1004 24.4246 17.0754C25.3996 18.0504 26.1731 19.2079 26.7007 20.4818C27.2284 21.7557 27.5 23.1211 27.5 24.5C27.5 25.8789 27.2284 27.2443 26.7007 28.5182C26.1731 29.7921 25.3996 30.9496 24.4246 31.9246C23.4496 32.8996 22.2921 33.6731 21.0182 34.2007C19.7443 34.7284 18.3789 35 17 35C15.6211 35 14.2557 34.7284 12.9818 34.2007C11.7079 33.6731 10.5504 32.8996 9.57538 31.9246C8.60036 30.9496 7.82694 29.7921 7.29926 28.5182C6.77159 27.2443 6.5 25.8789 6.5 24.5ZM20 40.7281C27.6781 39.3219 33.5 32.5906 33.5 24.5C33.5 15.3875 26.1125 8 17 8C7.8875 8 0.5 15.3875 0.5 24.5C0.5 32.5906 6.32187 39.3219 14 40.7281V44H11C9.34062 44 8 45.3406 8 47C8 48.6594 9.34062 50 11 50H14V53C14 54.6594 15.3406 56 17 56C18.6594 56 20 54.6594 20 53V50H23C24.6594 50 26 48.6594 26 47C26 45.3406 24.6594 44 23 44H20V40.7281Z" fill="#131922"/>
<path d="M27.0219 1.35859C27.3605 0.532422 28.1658 0 29.0536 0H39.3036C40.5208 0 41.5 0.982227 41.5 2.20312V12.4844C41.5 13.3748 40.9692 14.1826 40.1455 14.5223C39.3219 14.8619 38.3792 14.6783 37.7478 14.0449L34.6911 10.9789L29.8772 15.8074C31.6618 18.4145 32.7143 21.5631 32.7143 24.9688C32.7143 33.8914 25.5027 41.125 16.6071 41.125C7.71161 41.125 0.5 33.8914 0.5 24.9688C0.5 16.0461 7.71161 8.8125 16.6071 8.8125C19.9933 8.8125 23.1415 9.85898 25.7406 11.6582L30.5545 6.82969L27.4978 3.76367C26.8663 3.13027 26.6833 2.18477 27.0219 1.35859ZM16.6071 35.25C17.9532 35.25 19.2861 34.9841 20.5296 34.4674C21.7732 33.9507 22.9032 33.1934 23.855 32.2387C24.8068 31.284 25.5618 30.1506 26.0769 28.9032C26.592 27.6558 26.8571 26.3189 26.8571 24.9688C26.8571 23.6186 26.592 22.2817 26.0769 21.0343C25.5618 19.7869 24.8068 18.6535 23.855 17.6988C22.9032 16.7441 21.7732 15.9868 20.5296 15.4701C19.2861 14.9534 17.9532 14.6875 16.6071 14.6875C15.2611 14.6875 13.9282 14.9534 12.6846 15.4701C11.4411 15.9868 10.3111 16.7441 9.3593 17.6988C8.4075 18.6535 7.65249 19.7869 7.13738 21.0343C6.62227 22.2817 6.35714 23.6186 6.35714 24.9688C6.35714 26.3189 6.62227 27.6558 7.13738 28.9032C7.65249 30.1506 8.4075 31.284 9.3593 32.2387C10.3111 33.1934 11.4411 33.9507 12.6846 34.4674C13.9282 34.9841 15.2611 35.25 16.6071 35.25Z" fill="black"/>
</svg>
