<svg width="75" height="75" viewBox="0 0 75 75" fill="none" xmlns="http://www.w3.org/2000/svg">
<rect width="75" height="75" rx="7" fill="url(#paint0_linear_10786_4893)"/>
<path d="M32.5 32.5C34.65 32.5 36.6667 33.1833 38.2833 34.35L46.8 25.8333H39.1667V22.5H52.5V35.8333H49.1667V28.1833L40.65 36.6667C41.8167 38.3333 42.5 40.3333 42.5 42.5C42.5 45.1522 41.4464 47.6957 39.5711 49.5711C37.6957 51.4464 35.1522 52.5 32.5 52.5C29.8478 52.5 27.3043 51.4464 25.4289 49.5711C23.5536 47.6957 22.5 45.1522 22.5 42.5C22.5 39.8478 23.5536 37.3043 25.4289 35.4289C27.3043 33.5536 29.8478 32.5 32.5 32.5ZM32.5 35.8333C30.7319 35.8333 29.0362 36.5357 27.786 37.786C26.5357 39.0362 25.8333 40.7319 25.8333 42.5C25.8333 44.2681 26.5357 45.9638 27.786 47.214C29.0362 48.4643 30.7319 49.1667 32.5 49.1667C34.2681 49.1667 35.9638 48.4643 37.214 47.214C38.4643 45.9638 39.1667 44.2681 39.1667 42.5C39.1667 40.7319 38.4643 39.0362 37.214 37.786C35.9638 36.5357 34.2681 35.8333 32.5 35.8333Z" fill="white"/>
<defs>
<linearGradient id="paint0_linear_10786_4893" x1="100.25" y1="127.5" x2="-35.0927" y2="97.158" gradientUnits="userSpaceOnUse">
<stop offset="0.114074" stop-color="#6122B3"/>
<stop offset="1" stop-color="#C92D78"/>
</linearGradient>
</defs>
</svg>
