<svg width="75" height="75" viewBox="0 0 75 75" fill="none" xmlns="http://www.w3.org/2000/svg">
<rect width="75" height="75" rx="7" fill="url(#paint0_linear_10786_5442)"/>
<g clip-path="url(#clip0_10786_5442)">
<path d="M47.8752 22.5544C46.5143 22.7803 45.2582 23.4263 44.2828 24.402C43.3074 25.3777 42.6615 26.6341 42.4356 27.9953C42.3435 28.5356 42.3651 29.0892 42.4991 29.6207C42.633 30.1522 42.8763 30.6499 43.2134 31.082L42.6977 31.772C42.0907 32.5822 41.1387 33.0574 40.1275 33.0574H38.7359C37.9843 33.0577 37.2436 33.2366 36.5746 33.5794C35.9057 33.9221 35.3278 34.4189 34.8884 35.0288C34.449 35.6388 34.1608 36.3444 34.0474 37.0876C33.9341 37.8308 33.9989 38.5902 34.2365 39.3035L34.4275 39.8785C34.5291 40.1834 34.5495 40.5095 34.4867 40.8247C34.4239 41.1398 34.2802 41.4332 34.0696 41.6759C33.859 41.9186 33.5889 42.1023 33.2858 42.2089C32.9827 42.3154 32.6571 42.3412 32.341 42.2836C31.6685 42.1613 30.9769 42.1979 30.3211 42.3905C29.6653 42.583 29.0636 42.9262 28.5639 43.3927C28.0643 43.8591 27.6805 44.4359 27.4432 45.077C27.2059 45.7181 27.1217 46.4058 27.1973 47.0852L27.2379 47.4455C27.2964 47.9728 27.1553 48.5029 26.8422 48.9312C26.5292 49.3595 26.0671 49.655 25.547 49.7592L24.3634 49.996C24.0423 50.0706 23.7628 50.2674 23.5843 50.5447C23.4058 50.8219 23.3423 51.1578 23.4071 51.4811C23.472 51.8044 23.6602 52.0897 23.9318 52.2766C24.2034 52.4635 24.5371 52.5372 24.8622 52.4822L26.0441 52.2454C27.1865 52.0168 28.2017 51.3683 28.8894 50.4277C29.5771 49.4871 29.8874 48.3229 29.759 47.1647L29.7184 46.8045C29.6866 46.5179 29.7222 46.228 29.8223 45.9576C29.9224 45.6873 30.0843 45.4441 30.2951 45.2475C30.5058 45.0508 30.7595 44.9062 31.0361 44.825C31.3126 44.7438 31.6043 44.7284 31.8878 44.7799C35.1681 45.3753 37.8871 42.2396 36.8337 39.0751L36.6409 38.5001C36.5305 38.168 36.5006 37.8145 36.5537 37.4685C36.6067 37.1226 36.7411 36.7943 36.9458 36.5105C37.1506 36.2268 37.4198 35.9957 37.7313 35.8365C38.0429 35.6772 38.3878 35.5942 38.7376 35.5944H40.1275C41.02 35.5944 41.9003 35.3866 42.6986 34.9873C43.4969 34.5881 44.1912 34.0084 44.7268 33.2942L45.3304 32.4891C45.8546 32.6295 46.4227 32.6634 47.0044 32.5669C48.3655 32.3413 49.622 31.6954 50.5978 30.7197C51.5736 29.744 52.2197 28.4874 52.4457 27.126C52.5499 26.5022 52.5037 25.8625 52.3109 25.2602C52.1181 24.6579 51.7842 24.1103 51.3372 23.6631C50.8901 23.2159 50.3427 22.882 49.7405 22.6892C49.1383 22.4963 48.4988 22.4501 47.8752 22.5544ZM35.6974 23.0347C34.9463 23.1645 34.2479 23.5059 33.6839 24.0187C33.12 24.5316 32.7139 25.1947 32.5135 25.9302C32.3275 26.6169 32.4509 27.2867 32.7755 27.8279L31.9842 29.0118C31.8487 29.2152 31.6652 29.3821 31.4499 29.4977C31.2346 29.6133 30.9942 29.6742 30.7499 29.6748H30.109C29.2121 29.6748 28.3519 30.0312 27.7177 30.6655C27.0835 31.2999 26.7272 32.1603 26.7272 33.0574C26.7272 33.2817 26.6382 33.4968 26.4796 33.6554C26.321 33.814 26.106 33.9031 25.8818 33.9031C24.9849 33.9031 24.1247 34.2595 23.4905 34.8938C22.8563 35.5282 22.5 36.3886 22.5 37.2857V37.7085C22.5 38.045 22.6336 38.3676 22.8714 38.6055C23.1093 38.8434 23.4318 38.977 23.7682 38.977C24.1045 38.977 24.4271 38.8434 24.6649 38.6055C24.9027 38.3676 25.0363 38.045 25.0363 37.7085V37.2857C25.0363 37.0614 25.1254 36.8463 25.284 36.6877C25.4425 36.5292 25.6576 36.4401 25.8818 36.4401C26.7787 36.4401 27.6389 36.0837 28.2731 35.4493C28.9073 34.8149 29.2636 33.9546 29.2636 33.0574C29.2636 32.8331 29.3526 32.618 29.5112 32.4595C29.6697 32.3009 29.8848 32.2118 30.109 32.2118H30.7482C32.0941 32.2118 33.3488 31.5403 34.0961 30.419L35.0109 29.0456C35.1909 29.0364 35.3695 29.0081 35.5435 28.9611C36.2789 28.7605 36.9418 28.3544 37.4545 27.7903C37.9673 27.2262 38.3086 26.5276 38.4383 25.7763C38.4998 25.4025 38.4713 25.0194 38.3553 24.6587C38.2393 24.2981 38.039 23.9703 37.7711 23.7025C37.5032 23.4347 37.1754 23.2346 36.8147 23.1187C36.4541 23.0029 36.0711 22.9747 35.6974 23.0364M47.6892 36.5398C46.9123 36.6704 46.1954 37.04 45.6384 37.5971C45.0813 38.1543 44.7118 38.8714 44.5813 39.6485C44.5188 40.0189 44.5492 40.3758 44.6524 40.7039L42.4221 43.3068C42.0163 43.7804 41.4261 44.051 40.8056 44.051C40.0371 44.0508 39.2805 44.2405 38.603 44.6031C37.9254 44.9657 37.3479 45.4901 36.9216 46.1296L36.8506 46.2362C36.3132 47.0425 36.0266 47.9901 36.0271 48.9592V49.5478C36.0271 49.8842 36.1607 50.2068 36.3986 50.4447C36.6364 50.6826 36.959 50.8163 37.2953 50.8163C37.6316 50.8163 37.9542 50.6826 38.192 50.4447C38.4298 50.2068 38.5635 49.8842 38.5635 49.5478V48.9575C38.5635 48.4907 38.7021 48.0323 38.9608 47.6433L39.0318 47.5368C39.2265 47.2448 39.4903 47.0053 39.7997 46.8398C40.1091 46.6743 40.4547 46.5878 40.8056 46.588C41.4787 46.5878 42.1437 46.442 42.7552 46.1606C43.3666 45.8791 43.91 45.4687 44.348 44.9575L46.6391 42.2853C46.8184 42.2999 47.0027 42.2915 47.1921 42.2599C47.969 42.1294 48.6858 41.7598 49.2429 41.2026C49.7999 40.6454 50.1694 39.9283 50.2999 39.1512C50.3592 38.795 50.3326 38.4297 50.2223 38.0858C50.1121 37.7419 49.9214 37.4293 49.6661 37.1739C49.4107 36.9185 49.0982 36.7278 48.7544 36.6175C48.4105 36.5072 48.0454 36.4806 47.6892 36.5398Z" fill="white"/>
</g>
<rect x="19.3332" y="22.6667" width="36.3333" height="29.6667" rx="2.16667" stroke="#555555" stroke-width="0.333333"/>
<defs>
<linearGradient id="paint0_linear_10786_5442" x1="100.25" y1="127.5" x2="-35.0927" y2="97.158" gradientUnits="userSpaceOnUse">
<stop offset="0.114074" stop-color="#6122B3"/>
<stop offset="1" stop-color="#C92D78"/>
</linearGradient>
<clipPath id="clip0_10786_5442">
<rect x="19.1665" y="22.5" width="36.6667" height="30" rx="2.33333" fill="white"/>
</clipPath>
</defs>
</svg>
