<svg width="44" height="44" viewBox="0 0 44 44" fill="none" xmlns="http://www.w3.org/2000/svg">
<rect x="1" y="1" width="42" height="42" stroke="black"/>
<path d="M22.0001 9.45833C22.0023 8.74172 21.861 8.03192 21.5848 7.37068C21.3086 6.70944 20.9029 6.11011 20.3917 5.60795C19.8805 5.10578 19.274 4.71091 18.6079 4.44656C17.9418 4.18222 17.2296 4.05373 16.5132 4.06866C15.7967 4.0836 15.0905 4.24165 14.436 4.53352C13.7815 4.82539 13.192 5.24519 12.7021 5.76823C12.2122 6.29126 11.8319 6.90697 11.5835 7.57915C11.3351 8.25132 11.2235 8.96639 11.2555 9.68229C10.2024 9.95308 9.22467 10.46 8.39643 11.1646C7.5682 11.8692 6.91116 12.753 6.47507 13.7491C6.03899 14.7452 5.8353 15.8275 5.87942 16.914C5.92355 18.0005 6.21434 19.0627 6.72977 20.0202C5.82351 20.7565 5.11087 21.703 4.65383 22.7775C4.1968 23.8519 4.00923 25.0218 4.10742 26.1853C4.20561 27.3488 4.58661 28.4707 5.21725 29.4534C5.8479 30.4361 6.7091 31.2498 7.72594 31.8237C7.60037 32.7952 7.6753 33.7822 7.94611 34.7236C8.21691 35.665 8.67784 36.5409 9.30042 37.2972C9.92301 38.0535 10.694 38.6741 11.5659 39.1207C12.4377 39.5674 13.3919 39.8305 14.3694 39.894C15.3469 39.9574 16.3271 39.8198 17.2493 39.4896C18.1716 39.1593 19.0164 38.6436 19.7315 37.9741C20.4466 37.3046 21.0168 36.4956 21.407 35.5971C21.7972 34.6986 21.9991 33.7296 22.0001 32.75V9.45833Z" stroke="#C92D78" stroke-width="2" stroke-linecap="round" stroke-linejoin="round"/>
<path d="M22 9.45833C21.9979 8.74172 22.1391 8.03192 22.4153 7.37068C22.6916 6.70944 23.0972 6.11011 23.6085 5.60795C24.1197 5.10578 24.7262 4.71091 25.3923 4.44656C26.0583 4.18222 26.7706 4.05373 27.487 4.06866C28.2035 4.0836 28.9097 4.24165 29.5642 4.53352C30.2187 4.82539 30.8082 5.24519 31.2981 5.76823C31.7879 6.29126 32.1683 6.90697 32.4167 7.57915C32.6651 8.25132 32.7766 8.96639 32.7446 9.68229C33.7978 9.95308 34.7755 10.46 35.6037 11.1646C36.432 11.8692 37.089 12.753 37.5251 13.7491C37.9612 14.7452 38.1649 15.8275 38.1207 16.914C38.0766 18.0005 37.7858 19.0627 37.2704 20.0202C38.1767 20.7565 38.8893 21.703 39.3463 22.7775C39.8034 23.8519 39.9909 25.0218 39.8927 26.1853C39.7946 27.3488 39.4136 28.4707 38.7829 29.4534C38.1523 30.4361 37.2911 31.2498 36.2742 31.8237C36.3998 32.7952 36.3249 33.7822 36.0541 34.7236C35.7833 35.665 35.3223 36.5409 34.6997 37.2972C34.0772 38.0535 33.3061 38.6741 32.4343 39.1207C31.5625 39.5674 30.6083 39.8305 29.6308 39.894C28.6532 39.9574 27.6731 39.8198 26.7508 39.4896C25.8286 39.1593 24.9838 38.6436 24.2687 37.9741C23.5536 37.3046 22.9833 36.4956 22.5931 35.5971C22.2029 34.6986 22.0011 33.7296 22 32.75V9.45833Z" stroke="#C92D78" stroke-width="2" stroke-linecap="round" stroke-linejoin="round"/>
<path d="M27.3754 23.7917C25.8712 23.2625 24.5576 22.2992 23.6009 21.0235C22.6442 19.7479 22.0872 18.2172 22.0004 16.625C21.9135 18.2172 21.3566 19.7479 20.3998 21.0235C19.4431 22.2992 18.1296 23.2625 16.6254 23.7917M32.0319 12.1458C32.4655 11.3944 32.7108 10.5491 32.7468 9.68229M11.2557 9.68229C11.2912 10.549 11.5358 11.3942 11.9688 12.1458M6.72998 20.022C7.05775 19.755 7.40849 19.5176 7.77811 19.3125M36.2226 19.3125C36.5922 19.5176 36.943 19.755 37.2707 20.022M11.2504 32.75C10.0156 32.7506 8.80163 32.4321 7.72615 31.8255M36.2746 31.8255C35.1991 32.4321 33.9851 32.7506 32.7504 32.75" stroke="#C92D78" stroke-width="2" stroke-linecap="round" stroke-linejoin="round"/>
</svg>
