<svg width="50" height="50" viewBox="0 0 50 50" fill="none" xmlns="http://www.w3.org/2000/svg">
<path d="M17.9686 17.7077H8.59359C8.04105 17.7077 7.51115 17.4882 7.12045 17.0975C6.72975 16.7068 6.51025 16.1769 6.51025 15.6243V6.24935C6.51025 5.69681 6.72975 5.16691 7.12045 4.77621C7.51115 4.38551 8.04105 4.16602 8.59359 4.16602C9.14612 4.16602 9.67603 4.38551 10.0667 4.77621C10.4574 5.16691 10.6769 5.69681 10.6769 6.24935V13.541H17.9686C18.5211 13.541 19.051 13.7605 19.4417 14.1512C19.8324 14.5419 20.0519 15.0718 20.0519 15.6243C20.0519 16.1769 19.8324 16.7068 19.4417 17.0975C19.051 17.4882 18.5211 17.7077 17.9686 17.7077Z" fill="white"/>
<path d="M43.75 27.0837C43.1975 27.0837 42.6676 26.8643 42.2769 26.4736C41.8862 26.0829 41.6667 25.5529 41.6667 25.0004C41.6683 21.3328 40.4593 17.7672 38.2273 14.8569C35.9953 11.9466 32.8652 9.85436 29.3226 8.90484C25.78 7.95532 22.0231 8.20162 18.6348 9.60551C15.2465 11.0094 12.4163 13.4924 10.5833 16.6692C10.3065 17.1474 9.85106 17.496 9.31717 17.6385C8.78328 17.7809 8.21468 17.7054 7.73646 17.4285C7.25824 17.1517 6.90958 16.6963 6.76717 16.1624C6.62476 15.6285 6.70027 15.0599 6.97709 14.5817C9.26928 10.6113 12.8077 7.50843 17.0434 5.75435C21.279 4.00027 25.9752 3.69306 30.4033 4.88039C34.8314 6.06772 38.7439 8.68321 41.5338 12.3211C44.3237 15.959 45.835 20.4159 45.8333 25.0004C45.8333 25.5529 45.6138 26.0829 45.2231 26.4736C44.8324 26.8643 44.3025 27.0837 43.75 27.0837ZM41.4063 45.8337C40.8537 45.8337 40.3238 45.6143 39.9331 45.2236C39.5424 44.8329 39.3229 44.3029 39.3229 43.7504V36.4587H32.0313C31.4787 36.4587 30.9488 36.2393 30.5581 35.8486C30.1674 35.4579 29.9479 34.9279 29.9479 34.3754C29.9479 33.8229 30.1674 33.293 30.5581 32.9023C30.9488 32.5116 31.4787 32.2921 32.0313 32.2921H41.4063C41.9588 32.2921 42.4887 32.5116 42.8794 32.9023C43.2701 33.293 43.4896 33.8229 43.4896 34.3754V43.7504C43.4896 44.3029 43.2701 44.8329 42.8794 45.2236C42.4887 45.6143 41.9588 45.8337 41.4063 45.8337Z" fill="white"/>
<path d="M24.9998 45.8327C19.4762 45.8272 14.1804 43.6305 10.2745 39.7246C6.36872 35.8188 4.17202 30.523 4.1665 24.9993C4.1665 24.4468 4.386 23.9169 4.7767 23.5262C5.1674 23.1355 5.6973 22.916 6.24984 22.916C6.80237 22.916 7.33228 23.1355 7.72298 23.5262C8.11368 23.9169 8.33317 24.4468 8.33317 24.9993C8.33159 28.667 9.54059 32.2326 11.7726 35.1429C14.0045 38.0532 17.1347 40.1454 20.6773 41.0949C24.2198 42.0444 27.9768 41.7981 31.3651 40.3943C34.7534 38.9904 37.5836 36.5074 39.4165 33.3306C39.5536 33.0938 39.7359 32.8863 39.9532 32.72C40.1704 32.5537 40.4183 32.4318 40.6827 32.3613C40.947 32.2908 41.2227 32.273 41.4939 32.3091C41.7651 32.3451 42.0266 32.4342 42.2634 32.5712C42.5002 32.7083 42.7076 32.8907 42.874 33.1079C43.0403 33.3252 43.1622 33.573 43.2327 33.8374C43.3032 34.1017 43.3209 34.3774 43.2849 34.6486C43.2489 34.9198 43.1598 35.1813 43.0228 35.4181C41.1908 38.5777 38.5627 41.202 35.4004 43.0293C32.2381 44.8566 28.6521 45.8232 24.9998 45.8327Z" fill="white"/>
</svg>
