<svg width="40" height="54" viewBox="0 0 40 54" fill="none" xmlns="http://www.w3.org/2000/svg">
<path d="M26.1811 10.0465C28.9449 10.0465 31.2062 7.78605 31.2062 5.02326C31.2062 2.26047 28.9449 0 26.1811 0C23.4173 0 21.156 2.26047 21.156 5.02326C21.156 7.78605 23.4173 10.0465 26.1811 10.0465ZM18.2164 40.186L19.6485 33.907L24.9248 38.9302V51.4884C24.9248 52.8698 26.0555 54 27.4374 54C28.8192 54 29.9499 52.8698 29.9499 51.4884V37.3228C29.9499 35.9414 29.3971 34.6353 28.3921 33.6809L24.6736 30.1395L26.1811 22.6047C29.0124 25.8406 32.8885 27.9824 37.1357 28.6577C38.6432 28.8837 40 27.6781 40 26.146C40 24.9153 39.0955 23.8856 37.8643 23.6847C34.0453 23.0567 30.8795 20.7963 29.1961 17.8326L26.6836 13.814C25.6786 12.307 24.1711 11.3023 22.4123 11.3023C21.6585 11.3023 21.156 11.5535 20.4023 11.5535L10.4024 15.773C9.49215 16.162 8.71631 16.8097 8.17133 17.6359C7.62635 18.462 7.33626 19.43 7.33713 20.4195V26.3721C7.33713 27.7535 8.46776 28.8837 9.84966 28.8837C11.2315 28.8837 12.3622 27.7535 12.3622 26.3721V20.3442L16.8847 18.586L12.8647 38.9302L3.01558 36.9209C1.65881 36.6447 0.327171 37.5237 0.0507931 38.88V38.9805C-0.225585 40.3367 0.6538 41.6679 2.01057 41.9442L12.3371 44.0037C13.6215 44.2586 14.9546 44.0022 16.0527 43.2891C17.1509 42.5761 17.9272 41.4627 18.2164 40.186Z" fill="#C92D78"/>
</svg>
