<svg width="42" height="57" viewBox="0 0 42 57" fill="none" xmlns="http://www.w3.org/2000/svg">
<path d="M27.0219 1.79609C27.3605 0.969922 28.1658 0.4375 29.0536 0.4375H39.3036C40.5208 0.4375 41.5 1.41973 41.5 2.64062V12.9219C41.5 13.8123 40.9692 14.6201 40.1455 14.9598C39.3219 15.2994 38.3792 15.1158 37.7478 14.4824L34.6911 11.4164L29.8772 16.2449C31.6618 18.852 32.7143 22.0006 32.7143 25.4062C32.7143 34.3289 25.5027 41.5625 16.6071 41.5625C7.71161 41.5625 0.5 34.3289 0.5 25.4062C0.5 16.4836 7.71161 9.25 16.6071 9.25C19.9933 9.25 23.1415 10.2965 25.7406 12.0957L30.5545 7.26719L27.4978 4.20117C26.8663 3.56777 26.6833 2.62227 27.0219 1.79609ZM16.6071 35.6875C17.9532 35.6875 19.2861 35.4216 20.5296 34.9049C21.7732 34.3882 22.9032 33.6309 23.855 32.6762C24.8068 31.7215 25.5618 30.5881 26.0769 29.3407C26.592 28.0933 26.8571 26.7564 26.8571 25.4062C26.8571 24.0561 26.592 22.7192 26.0769 21.4718C25.5618 20.2244 24.8068 19.091 23.855 18.1363C22.9032 17.1816 21.7732 16.4243 20.5296 15.9076C19.2861 15.3909 17.9532 15.125 16.6071 15.125C15.2611 15.125 13.9282 15.3909 12.6846 15.9076C11.4411 16.4243 10.3111 17.1816 9.3593 18.1363C8.4075 19.091 7.65249 20.2244 7.13738 21.4718C6.62227 22.7192 6.35714 24.0561 6.35714 25.4062C6.35714 26.7564 6.62227 28.0933 7.13738 29.3407C7.65249 30.5881 8.4075 31.7215 9.3593 32.6762C10.3111 33.6309 11.4411 34.3882 12.6846 34.9049C13.9282 35.4216 15.2611 35.6875 16.6071 35.6875Z" fill="url(#paint0_linear_1_12)"/>
<path d="M6.5 25.5C6.5 24.1211 6.77159 22.7557 7.29926 21.4818C7.82694 20.2079 8.60036 19.0504 9.57538 18.0754C10.5504 17.1004 11.7079 16.3269 12.9818 15.7993C14.2557 15.2716 15.6211 15 17 15C18.3789 15 19.7443 15.2716 21.0182 15.7993C22.2921 16.3269 23.4496 17.1004 24.4246 18.0754C25.3996 19.0504 26.1731 20.2079 26.7007 21.4818C27.2284 22.7557 27.5 24.1211 27.5 25.5C27.5 26.8789 27.2284 28.2443 26.7007 29.5182C26.1731 30.7921 25.3996 31.9496 24.4246 32.9246C23.4496 33.8996 22.2921 34.6731 21.0182 35.2007C19.7443 35.7284 18.3789 36 17 36C15.6211 36 14.2557 35.7284 12.9818 35.2007C11.7079 34.6731 10.5504 33.8996 9.57538 32.9246C8.60036 31.9496 7.82694 30.7921 7.29926 29.5182C6.77159 28.2443 6.5 26.8789 6.5 25.5ZM20 41.7281C27.6781 40.3219 33.5 33.5906 33.5 25.5C33.5 16.3875 26.1125 9 17 9C7.8875 9 0.5 16.3875 0.5 25.5C0.5 33.5906 6.32187 40.3219 14 41.7281V45H11C9.34062 45 8 46.3406 8 48C8 49.6594 9.34062 51 11 51H14V54C14 55.6594 15.3406 57 17 57C18.6594 57 20 55.6594 20 54V51H23C24.6594 51 26 49.6594 26 48C26 46.3406 24.6594 45 23 45H20V41.7281Z" fill="url(#paint1_linear_1_12)"/>
<defs>
<linearGradient id="paint0_linear_1_12" x1="0.5" y1="21" x2="41.5" y2="21" gradientUnits="userSpaceOnUse">
<stop stop-color="#6122B3"/>
<stop offset="1" stop-color="#C92D78"/>
</linearGradient>
<linearGradient id="paint1_linear_1_12" x1="0.5" y1="33" x2="33.5" y2="33" gradientUnits="userSpaceOnUse">
<stop stop-color="#6122B3"/>
<stop offset="1" stop-color="#C92D78"/>
</linearGradient>
</defs>
</svg>
