<svg width="49" height="47" viewBox="0 0 49 47" fill="none" xmlns="http://www.w3.org/2000/svg">
<path fill-rule="evenodd" clip-rule="evenodd" d="M6.33257 2.10824C9.37507 -0.916759 14.3851 -0.379258 16.9326 3.02574L20.0876 7.23574C22.1626 10.0057 21.9776 13.8757 19.5151 16.3232L18.9201 16.9182C18.8526 17.168 18.8457 17.4303 18.9001 17.6832C19.0576 18.7032 19.9101 20.8632 23.4801 24.4132C27.0501 27.9632 29.2251 28.8132 30.2601 28.9732C30.5209 29.0257 30.7902 29.018 31.0476 28.9507L32.0676 27.9357C34.2576 25.7607 37.6176 25.3532 40.3276 26.8257L45.1026 29.4257C49.1951 31.6457 50.2276 37.2057 46.8776 40.5382L43.3251 44.0682C42.2051 45.1807 40.7001 46.1082 38.8651 46.2807C34.3401 46.7032 23.7976 46.1632 12.7151 35.1457C2.37257 24.8607 0.387568 15.8907 0.135068 11.4707C0.0100675 9.23574 1.06507 7.34574 2.41007 6.01074L6.33257 2.10824ZM13.9326 5.27324C12.6651 3.58074 10.3051 3.44574 8.97507 4.76824L5.05007 8.66824C4.22507 9.48824 3.83007 10.3932 3.88007 11.2582C4.08007 14.7707 5.68007 22.8632 15.3601 32.4882C25.5151 42.5832 34.8926 42.8857 38.5176 42.5457C39.2576 42.4782 39.9926 42.0932 40.6801 41.4107L44.2301 37.8782C45.6751 36.4432 45.3576 33.8282 43.3126 32.7182L38.5376 30.1207C37.2176 29.4057 35.6726 29.6407 34.7126 30.5957L33.5751 31.7282L32.2501 30.3982C33.5751 31.7282 33.5726 31.7307 33.5701 31.7307L33.5676 31.7357L33.5601 31.7432L33.5426 31.7582L33.5051 31.7932C33.3996 31.8912 33.2858 31.9799 33.1651 32.0582C32.9651 32.1907 32.7001 32.3382 32.3676 32.4607C31.6926 32.7132 30.7976 32.8482 29.6926 32.6782C27.5251 32.3457 24.6526 30.8682 20.8351 27.0732C17.0201 23.2782 15.5301 20.4232 15.1951 18.2582C15.0226 17.1532 15.1601 16.2582 15.4151 15.5832C15.5554 15.2034 15.7563 14.8488 16.0101 14.5332L16.0901 14.4457L16.1251 14.4082L16.1401 14.3932L16.1476 14.3857L16.1526 14.3807L16.8726 13.6657C17.9426 12.5982 18.0926 10.8307 17.0851 9.48324L13.9326 5.27324Z" fill="white"/>
</svg>
