<svg width="14" height="15" viewBox="0 0 14 15" fill="none" xmlns="http://www.w3.org/2000/svg">
<path fill-rule="evenodd" clip-rule="evenodd" d="M7 14.25C7.88642 14.25 8.76417 14.0754 9.58311 13.7362C10.4021 13.397 11.1462 12.8998 11.773 12.273C12.3998 11.6462 12.897 10.9021 13.2362 10.0831C13.5754 9.26417 13.75 8.38642 13.75 7.5C13.75 6.61358 13.5754 5.73583 13.2362 4.91689C12.897 4.09794 12.3998 3.35382 11.773 2.72703C11.1462 2.10023 10.4021 1.60303 9.58311 1.26381C8.76417 0.924594 7.88642 0.75 7 0.75C5.20979 0.75 3.4929 1.46116 2.22703 2.72703C0.961159 3.9929 0.25 5.70979 0.25 7.5C0.25 9.29021 0.961159 11.0071 2.22703 12.273C3.4929 13.5388 5.20979 14.25 7 14.25ZM6.826 10.23L10.576 5.73L9.424 4.77L6.199 8.63925L4.53025 6.96975L3.46975 8.03025L5.71975 10.2802L6.30025 10.8608L6.826 10.23Z" fill="white"/>
</svg>
