<svg width="50" height="46" viewBox="0 0 50 46" fill="none" xmlns="http://www.w3.org/2000/svg">
<path d="M19.2308 0C16.0673 0 13.4615 2.59708 13.4615 5.75V9.58333H17.3077V5.75C17.3077 4.67092 18.1481 3.83333 19.2308 3.83333H30.7692C31.8519 3.83333 32.6923 4.67092 32.6923 5.75V9.58333H36.5385V5.75C36.5385 2.59708 33.9327 0 30.7692 0H19.2308ZM5.76923 11.5C4.23914 11.5 2.77171 12.1058 1.68977 13.1841C0.607828 14.2625 0 15.725 0 17.25L0 40.25C0 41.775 0.607828 43.2375 1.68977 44.3159C2.77171 45.3942 4.23914 46 5.76923 46H44.2308C47.4154 46 50 43.424 50 40.25V17.25C50 15.725 49.3922 14.2625 48.3102 13.1841C47.2283 12.1058 45.7609 11.5 44.2308 11.5H5.76923ZM25 17.0698C26.5393 17.0688 28.0637 17.3703 29.486 17.9569C30.9083 18.5435 32.2006 19.4038 33.289 20.4886C34.3774 21.5734 35.2406 22.8614 35.8292 24.279C36.4178 25.6966 36.7202 27.2159 36.7192 28.75C36.7202 30.2841 36.4178 31.8034 35.8292 33.221C35.2406 34.6386 34.3774 35.9266 33.289 37.0114C32.2006 38.0962 30.9083 38.9565 29.486 39.5431C28.0637 40.1297 26.5393 40.4312 25 40.4302C23.4607 40.4312 21.9363 40.1297 20.514 39.5431C19.0917 38.9565 17.7994 38.0962 16.711 37.0114C15.6226 35.9266 14.7594 34.6386 14.1708 33.221C13.5822 31.8034 13.2798 30.2841 13.2808 28.75C13.2798 27.2159 13.5822 25.6966 14.1708 24.279C14.7594 22.8614 15.6226 21.5734 16.711 20.4886C17.7994 19.4038 19.0917 18.5435 20.514 17.9569C21.9363 17.3703 23.4607 17.0688 25 17.0698ZM23.0769 23V26.8333H19.2308V30.6667H23.0769V34.5H26.9231V30.6667H30.7692V26.8333H26.9231V23H23.0769Z" fill="white"/>
</svg>
