<svg width="75" height="76" viewBox="0 0 75 76" fill="none" xmlns="http://www.w3.org/2000/svg">
<rect y="0.5" width="75" height="75" rx="7" fill="url(#paint0_linear_10786_5300)"/>
<path d="M37.5 33.9998C35.9685 33.9998 34.6567 33.4544 33.5647 32.3637C32.4727 31.2729 31.9273 29.9605 31.9286 28.4265C31.9298 26.8925 32.4752 25.5814 33.5647 24.4931C34.6542 23.4048 35.966 22.8594 37.5 22.8569C39.034 22.8545 40.3458 23.3998 41.4353 24.4931C42.5248 25.5863 43.0702 26.8981 43.0714 28.4284C43.0727 29.9587 42.5273 31.2698 41.4353 32.3618C40.3433 33.4538 39.0315 33.9998 37.5 33.9998ZM37.5 32.1427C38.5214 32.1427 39.3961 31.7787 40.1241 31.0507C40.8521 30.3227 41.2155 29.4486 41.2143 28.4284C41.213 27.4082 40.8497 26.5335 40.1241 25.8042C39.3986 25.075 38.5239 24.7116 37.5 24.7141C36.4761 24.7166 35.602 25.0799 34.8777 25.8042C34.1534 26.5285 33.7894 27.4032 33.7857 28.4284C33.782 29.4535 34.146 30.3276 34.8777 31.0507C35.6094 31.7737 36.4835 32.1377 37.5 32.1427ZM37.5 37.4281C39.3287 37.4281 41.1518 37.659 42.9693 38.1208C44.7868 38.5826 46.4731 39.1924 48.0281 39.9501C48.8007 40.3252 49.4055 40.8465 49.8426 41.5138C50.2809 42.1824 50.5 42.9005 50.5 43.6681V50.1421C50.5 50.9964 50.214 51.7101 49.642 52.2834C49.07 52.8566 48.3562 53.1432 47.5007 53.1432H34.25C33.1605 53.1432 32.2505 52.7786 31.52 52.0494C30.792 51.3214 30.428 50.4114 30.428 49.3194C30.428 48.2298 30.7926 47.3211 31.5219 46.5931C32.2499 45.8638 33.1592 45.4992 34.25 45.4992H39.9607L42.7316 39.9779C41.8983 39.7353 41.002 39.5595 40.0424 39.4505C39.0829 39.3416 38.2354 39.2865 37.5 39.2852C35.7246 39.2852 34.0234 39.4963 32.3966 39.9185C30.7697 40.3419 29.2599 40.8954 27.867 41.5788C27.3916 41.8041 27.0208 42.1056 26.7546 42.4832C26.4884 42.8608 26.3559 43.2558 26.3571 43.6681V52.2147C26.3571 52.4771 26.268 52.6975 26.0897 52.8758C25.9114 53.0541 25.6904 53.1426 25.4267 53.1414C25.163 53.1401 24.9426 53.0516 24.7656 52.8758C24.5885 52.7 24.5 52.4784 24.5 52.2109V43.6681C24.5 42.9005 24.7185 42.1824 25.1556 41.5138C25.5939 40.8452 26.1993 40.324 26.9719 39.9501C28.5257 39.1924 30.212 38.5826 32.0307 38.1208C33.8482 37.659 35.6713 37.4281 37.5 37.4281ZM34.25 51.2861H37.1211L39.0637 47.3564H34.25C33.7127 47.3564 33.2509 47.5495 32.8646 47.9358C32.4783 48.3208 32.2851 48.7827 32.2851 49.3212C32.2851 49.8586 32.4783 50.3204 32.8646 50.7067C33.2509 51.0929 33.7127 51.2861 34.25 51.2861ZM39.1714 51.2861H47.5007C47.8338 51.2861 48.1074 51.1784 48.3216 50.9629C48.5358 50.7488 48.6429 50.4751 48.6429 50.1421V43.6681C48.6429 43.2558 48.498 42.8608 48.2083 42.4832C47.9198 42.1056 47.5645 41.8041 47.1423 41.5788C46.7473 41.3683 46.327 41.1746 45.8813 40.9975C45.4356 40.8205 44.9899 40.6508 44.5441 40.4887L39.1714 51.2861Z" fill="white"/>
<defs>
<linearGradient id="paint0_linear_10786_5300" x1="100.25" y1="128" x2="-35.0927" y2="97.658" gradientUnits="userSpaceOnUse">
<stop offset="0.114074" stop-color="#6122B3"/>
<stop offset="1" stop-color="#C92D78"/>
</linearGradient>
</defs>
</svg>
