<svg width="43" height="39" viewBox="0 0 43 39" fill="none" xmlns="http://www.w3.org/2000/svg">
<path d="M21.5 38.625C20.8625 38.625 20.2519 38.5103 19.6682 38.2808C19.0846 38.0513 18.5618 37.7056 18.1 37.2438L3.8625 22.9531C2.62292 21.7135 1.71129 20.2969 1.12763 18.7031C0.543959 17.1094 0.251417 15.4448 0.25 13.7094C0.25 10.0615 1.43646 6.92708 3.80937 4.30625C6.18229 1.68542 9.13958 0.375 12.6812 0.375C14.3812 0.375 15.9842 0.711458 17.4901 1.38437C18.996 2.05729 20.3327 2.99583 21.5 4.2C22.6333 2.99583 23.953 2.05729 25.4589 1.38437C26.9648 0.711458 28.567 0.375 30.2656 0.375C33.8073 0.375 36.7738 1.68542 39.1651 4.30625C41.5565 6.92708 42.7514 10.0437 42.75 13.6562C42.75 15.3917 42.449 17.0563 41.8469 18.65C41.2448 20.2438 40.3417 21.6604 39.1375 22.9L24.8469 37.2438C24.3865 37.7042 23.8729 38.0498 23.3063 38.2808C22.7396 38.5117 22.1375 38.6264 21.5 38.625ZM23.625 11C23.9792 11 24.3156 11.0885 24.6344 11.2656C24.9531 11.4427 25.201 11.6729 25.3781 11.9562L28.9906 17.375H37.8094C38.0573 16.7729 38.2436 16.1623 38.3682 15.5432C38.4929 14.9242 38.5545 14.2952 38.5531 13.6562C38.4823 11.2125 37.6677 9.11371 36.1094 7.35988C34.551 5.60604 32.6031 4.72983 30.2656 4.73125C29.1677 4.73125 28.1144 4.94375 27.1057 5.36875C26.0971 5.79375 25.2202 6.41354 24.475 7.22812L23.0406 8.76875C22.8635 8.98125 22.6333 9.14983 22.35 9.2745C22.0667 9.39917 21.7833 9.46079 21.5 9.45938C21.2167 9.45796 20.9333 9.39633 20.65 9.2745C20.3667 9.15267 20.1187 8.98408 19.9062 8.76875L18.4719 7.22812C17.7281 6.41354 16.8604 5.77604 15.8688 5.31562C14.8771 4.85521 13.8146 4.625 12.6812 4.625C10.3438 4.625 8.39583 5.51963 6.8375 7.30888C5.27917 9.09813 4.5 11.2139 4.5 13.6562C4.5 14.2937 4.55312 14.9227 4.65937 15.5432C4.76562 16.1637 4.94271 16.7743 5.19062 17.375H15.125C15.4792 17.375 15.8156 17.4635 16.1344 17.6406C16.4531 17.8177 16.701 18.0479 16.8781 18.3312L18.7375 21.0938L21.6063 12.4875C21.7479 12.0625 22.0043 11.7083 22.3755 11.425C22.7467 11.1417 23.1632 11 23.625 11ZM24.2625 17.9062L21.3937 26.5125C21.2521 26.9375 20.9865 27.2917 20.5969 27.575C20.2073 27.8583 19.7823 28 19.3219 28C18.9677 28 18.6313 27.9115 18.3125 27.7344C17.9937 27.5573 17.7458 27.3271 17.5687 27.0438L13.9562 21.625H8.5375L21.1281 34.2156C21.199 34.2865 21.2613 34.3311 21.3151 34.3495C21.369 34.3679 21.4306 34.3764 21.5 34.375C21.5694 34.3736 21.6318 34.3651 21.687 34.3495C21.7423 34.3339 21.8039 34.2893 21.8719 34.2156L34.4094 21.625H27.875C27.5208 21.625 27.1844 21.5365 26.8656 21.3594C26.5469 21.1823 26.2812 20.9521 26.0687 20.6688L24.2625 17.9062Z" fill="#C92D78"/>
</svg>
