<svg width="45" height="50" viewBox="0 0 45 50" fill="none" xmlns="http://www.w3.org/2000/svg">
<path d="M19.4403 1.84655C20.1989 1.02398 21.2139 0.539975 22.2851 0.49001C23.3563 0.440045 24.4058 0.827755 25.2266 1.57665L25.5009 1.84888L29.5727 6.26736H35.3289C36.4099 6.26758 37.4508 6.71124 38.2433 7.50946C39.0357 8.30769 39.5211 9.40152 39.6022 10.5718L39.615 10.9208V17.1705L43.6868 21.5913C44.445 22.415 44.8912 23.5175 44.9372 24.681C44.9833 25.8446 44.6258 26.9845 43.9354 27.8758L43.6847 28.1713L39.6129 32.5921V38.8418C39.6132 40.0158 39.2048 41.1466 38.4696 42.0074C37.7343 42.8683 36.7265 43.3956 35.6482 43.4836L35.3289 43.4952H29.5748L25.503 47.9161C24.7443 48.7393 23.7288 49.2237 22.6572 49.2737C21.5855 49.3236 20.5356 48.9355 19.7146 48.186L19.4425 47.9161L15.3707 43.4952H9.61228C8.53095 43.4956 7.48944 43.0522 6.69655 42.2539C5.90367 41.4557 5.41799 40.3615 5.33689 39.1908L5.32618 38.8418V32.5921L1.25438 28.1713C0.496151 27.3476 0.049975 26.2451 0.00395049 25.0816C-0.042074 23.918 0.315399 22.7781 1.00578 21.8868L1.25438 21.5913L5.32618 17.1705V10.9208C5.32637 9.74723 5.73501 8.61703 6.47022 7.75667C7.20542 6.89632 8.2129 6.36934 9.29082 6.28132L9.61228 6.26736H15.3685L19.4403 1.84655ZM22.4706 5.14122L18.3988 9.56203C17.6869 10.3337 16.7478 10.8089 15.7457 10.9046L15.3685 10.9208H9.61228V17.1705C9.61254 18.2638 9.25822 19.3223 8.61147 20.1603L8.35645 20.4628L4.28465 24.8836L8.35645 29.3021C9.06798 30.0746 9.50648 31.0944 9.59514 32.1826L9.61228 32.5921V38.8418H15.3685C16.3755 38.8415 17.3505 39.2262 18.1223 39.9283L18.4009 40.2052L22.4706 44.626L26.5424 40.2052C27.2539 39.4327 28.1931 38.9566 29.1955 38.8604L29.5727 38.8418H35.3289V32.5921C35.3287 31.4988 35.683 30.4403 36.3297 29.6023L36.5847 29.2998L40.6565 24.8813L36.5847 20.4605C35.8732 19.688 35.4347 18.6683 35.3461 17.58L35.3289 17.1705V10.9208H29.5727C28.5657 10.9211 27.5907 10.5364 26.8189 9.83426L26.5403 9.55737L22.4685 5.13656L22.4706 5.14122ZM29.0712 17.8638C29.4569 17.4466 29.9744 17.2043 30.5186 17.1862C31.0628 17.1682 31.593 17.3757 32.0014 17.7667C32.4097 18.1577 32.6658 18.7028 32.7174 19.2912C32.769 19.8797 32.6124 20.4675 32.2793 20.9351L32.0993 21.1539L21.6412 32.5084C21.2329 32.9522 20.6887 33.2179 20.1119 33.2547C19.5351 33.2916 18.9659 33.0972 18.5124 32.7085L18.3066 32.5107L13.1547 26.9172C12.7663 26.4995 12.5396 25.9363 12.5211 25.3431C12.5025 24.7498 12.6936 24.1713 13.055 23.7259C13.4165 23.2805 13.9211 23.002 14.4655 22.9473C15.0099 22.8926 15.553 23.0659 15.9836 23.4317L16.185 23.6249L19.9739 27.7385L29.0712 17.8638Z" fill="#C92D78"/>
</svg>
