<svg width="41" height="42" viewBox="0 0 41 42" fill="none" xmlns="http://www.w3.org/2000/svg">
<path fill-rule="evenodd" clip-rule="evenodd" d="M29.4687 18.375C29.4687 19.9262 29.1704 21.4623 28.5909 22.8955C28.0114 24.3286 27.1621 25.6308 26.0913 26.7277C25.0205 27.8246 23.7493 28.6947 22.3503 29.2883C20.9512 29.882 19.4518 30.1875 17.9374 30.1875C16.4231 30.1875 14.9237 29.882 13.5246 29.2883C12.1256 28.6947 10.8544 27.8246 9.78363 26.7277C8.71285 25.6308 7.86346 24.3286 7.28396 22.8955C6.70446 21.4623 6.4062 19.9262 6.4062 18.375C6.4062 15.2421 7.6211 12.2376 9.78363 10.0223C11.9462 7.80703 14.8792 6.5625 17.9374 6.5625C20.9957 6.5625 23.9287 7.80703 26.0913 10.0223C28.2538 12.2376 29.4687 15.2421 29.4687 18.375ZM27.3675 30.8175C24.278 33.2744 20.3907 34.4329 16.4968 34.0571C12.6029 33.6813 8.99521 31.7995 6.40812 28.7947C3.82103 25.7899 2.44906 21.888 2.57151 17.8835C2.69396 13.8789 4.30162 10.0727 7.06721 7.23963C9.8328 4.40659 13.5484 2.75972 17.4576 2.63428C21.3668 2.50885 25.1758 3.91429 28.109 6.56447C31.0423 9.21466 32.8793 12.9104 33.2462 16.8992C33.613 20.8881 32.4821 24.8702 30.0837 28.035L37.2331 35.3588C37.4219 35.539 37.5733 35.7563 37.6784 35.9978C37.7834 36.2393 37.8399 36.5 37.8445 36.7644C37.849 37.0287 37.8015 37.2913 37.7049 37.5364C37.6082 37.7816 37.4644 38.0043 37.2819 38.1912C37.0994 38.3782 36.882 38.5256 36.6427 38.6246C36.4034 38.7236 36.147 38.7722 35.889 38.7676C35.6309 38.7629 35.3764 38.705 35.1407 38.5974C34.9049 38.4898 34.6928 38.3347 34.5168 38.1413L27.3675 30.8175Z" fill="#C92D78"/>
</svg>
