<svg width="39" height="46" viewBox="0 0 39 46" fill="none" xmlns="http://www.w3.org/2000/svg">
<path d="M21 45.5L20.4375 38.75H19.875C14.55 38.75 10.0312 36.8937 6.31875 33.1812C2.60625 29.4688 0.75 24.95 0.75 19.625C0.75 14.3 2.60625 9.78125 6.31875 6.06875C10.0312 2.35625 14.55 0.5 19.875 0.5C22.5375 0.5 25.0222 0.9965 27.3293 1.9895C29.6362 2.9825 31.6613 4.35125 33.4043 6.09575C35.1473 7.84025 36.5153 9.86525 37.5083 12.1707C38.5013 14.4762 38.9985 16.961 39 19.625C39 22.4375 38.541 25.1375 37.623 27.725C36.705 30.3125 35.448 32.7125 33.852 34.925C32.256 37.1375 30.3623 39.1437 28.1707 40.9438C25.9792 42.7438 23.589 44.2625 21 45.5ZM25.5 37.2875C28.1625 35.0375 30.3285 32.4035 31.998 29.3855C33.6675 26.3675 34.5015 23.114 34.5 19.625C34.5 15.5375 33.084 12.0785 30.252 9.248C27.42 6.4175 23.961 5.0015 19.875 5C15.789 4.9985 12.33 6.4145 9.498 9.248C6.666 12.0815 5.25 15.5405 5.25 19.625C5.25 23.7095 6.666 27.1693 9.498 30.0042C12.33 32.8392 15.789 34.2545 19.875 34.25H25.5V37.2875ZM19.8188 31.9438C20.4563 31.9438 21 31.7188 21.45 31.2688C21.9 30.8188 22.125 30.275 22.125 29.6375C22.125 29 21.9 28.4563 21.45 28.0063C21 27.5563 20.4563 27.3313 19.8188 27.3313C19.1813 27.3313 18.6375 27.5563 18.1875 28.0063C17.7375 28.4563 17.5125 29 17.5125 29.6375C17.5125 30.275 17.7375 30.8188 18.1875 31.2688C18.6375 31.7188 19.1813 31.9438 19.8188 31.9438ZM18.1875 24.8H21.5625C21.5625 23.675 21.675 22.8875 21.9 22.4375C22.125 21.9875 22.8375 21.1625 24.0375 19.9625C24.7125 19.2875 25.275 18.5562 25.725 17.7688C26.175 16.9813 26.4 16.1375 26.4 15.2375C26.4 13.325 25.7535 11.891 24.4605 10.9355C23.1675 9.98 21.639 9.5015 19.875 9.5C18.225 9.5 16.8375 9.95975 15.7125 10.8792C14.5875 11.7987 13.8 12.914 13.35 14.225L16.5 15.4625C16.6875 14.825 17.0438 14.1973 17.5688 13.5793C18.0938 12.9613 18.8625 12.6515 19.875 12.65C20.8875 12.6485 21.6472 12.9298 22.1542 13.4938C22.6612 14.0578 22.914 14.6765 22.9125 15.35C22.9125 15.9875 22.725 16.5597 22.35 17.0667C21.975 17.5737 21.525 18.089 21 18.6125C19.6875 19.7375 18.891 20.6285 18.6105 21.2855C18.33 21.9425 18.189 23.114 18.1875 24.8Z" fill="#C92D78"/>
</svg>
