<svg width="57" height="38" viewBox="0 0 57 38" fill="none" xmlns="http://www.w3.org/2000/svg">
<path d="M53.875 16.375V10.25C53.875 9.08968 53.4141 7.97688 52.5936 7.15641C51.7731 6.33594 50.6603 5.875 49.5 5.875H46V5C46 3.83968 45.5391 2.72688 44.7186 1.90641C43.8981 1.08594 42.7853 0.625 41.625 0.625H36.375C35.2147 0.625 34.1019 1.08594 33.2814 1.90641C32.4609 2.72688 32 3.83968 32 5V16.375H25V5C25 3.83968 24.5391 2.72688 23.7186 1.90641C22.8981 1.08594 21.7853 0.625 20.625 0.625H15.375C14.2147 0.625 13.1019 1.08594 12.2814 1.90641C11.4609 2.72688 11 3.83968 11 5V5.875H7.5C6.33968 5.875 5.22688 6.33594 4.40641 7.15641C3.58594 7.97688 3.125 9.08968 3.125 10.25V16.375C2.42881 16.375 1.76113 16.6516 1.26884 17.1438C0.776562 17.6361 0.5 18.3038 0.5 19C0.5 19.6962 0.776562 20.3639 1.26884 20.8562C1.76113 21.3484 2.42881 21.625 3.125 21.625V27.75C3.125 28.9103 3.58594 30.0231 4.40641 30.8436C5.22688 31.6641 6.33968 32.125 7.5 32.125H11V33C11 34.1603 11.4609 35.2731 12.2814 36.0936C13.1019 36.9141 14.2147 37.375 15.375 37.375H20.625C21.7853 37.375 22.8981 36.9141 23.7186 36.0936C24.5391 35.2731 25 34.1603 25 33V21.625H32V33C32 34.1603 32.4609 35.2731 33.2814 36.0936C34.1019 36.9141 35.2147 37.375 36.375 37.375H41.625C42.7853 37.375 43.8981 36.9141 44.7186 36.0936C45.5391 35.2731 46 34.1603 46 33V32.125H49.5C50.6603 32.125 51.7731 31.6641 52.5936 30.8436C53.4141 30.0231 53.875 28.9103 53.875 27.75V21.625C54.5712 21.625 55.2389 21.3484 55.7312 20.8562C56.2234 20.3639 56.5 19.6962 56.5 19C56.5 18.3038 56.2234 17.6361 55.7312 17.1438C55.2389 16.6516 54.5712 16.375 53.875 16.375ZM8.375 26.875V11.125H11V26.875H8.375ZM19.75 32.125H16.25V5.875H19.75V32.125ZM40.75 32.125H37.25V5.875H40.75V32.125ZM48.625 26.875H46V11.125H48.625V26.875Z" fill="black"/>
</svg>
