<svg width="75" height="76" viewBox="0 0 75 76" fill="none" xmlns="http://www.w3.org/2000/svg">
<rect y="0.5" width="75" height="75" rx="7" fill="url(#paint0_linear_10786_5092)"/>
<path d="M37.4998 24.4584C41.5207 24.4584 44.7915 27.7292 44.7915 31.7501C44.7915 35.7709 41.5207 39.0417 37.4998 39.0417C33.479 39.0417 30.2082 35.7709 30.2082 31.7501C30.2082 27.7292 33.479 24.4584 37.4998 24.4584ZM39.5832 43.0209C42.2167 42.534 44.5964 41.14 46.309 39.081C48.0217 37.022 48.959 34.4282 48.9582 31.7501C48.9582 25.4167 43.8332 20.2917 37.4998 20.2917C31.1665 20.2917 26.0415 25.4167 26.0415 31.7501C26.0407 34.4282 26.978 37.022 28.6906 39.081C30.4033 41.14 32.783 42.534 35.4165 43.0209V47.3751H33.3332C32.1873 47.3751 31.2498 48.3126 31.2498 49.4584C31.2498 50.6042 32.1873 51.5417 33.3332 51.5417H35.4165V53.6251C35.4165 54.7709 36.354 55.7084 37.4998 55.7084C38.6457 55.7084 39.5832 54.7709 39.5832 53.6251V51.5417H41.6665C42.8123 51.5417 43.7498 50.6042 43.7498 49.4584C43.7498 48.3126 42.8123 47.3751 41.6665 47.3751H39.5832V43.0209Z" fill="white"/>
<defs>
<linearGradient id="paint0_linear_10786_5092" x1="100.25" y1="128" x2="-35.0927" y2="97.658" gradientUnits="userSpaceOnUse">
<stop offset="0.114074" stop-color="#6122B3"/>
<stop offset="1" stop-color="#C92D78"/>
</linearGradient>
</defs>
</svg>
